<svg width="35" height="35" viewBox="0 0 35 35" fill="none" xmlns="http://www.w3.org/2000/svg">
<path d="M27.0637 34.225C26.7231 34.224 26.3835 34.1867 26.0507 34.1136C19.7163 32.8032 13.8806 29.7308 9.21524 25.2501C4.64947 20.7595 1.48286 15.042 0.0985463 8.78939C-0.0646818 8.01013 -0.0246192 7.20197 0.21488 6.44267C0.454379 5.68337 0.885254 4.99848 1.46605 4.4539L5.51792 0.553975C5.72487 0.358257 5.97077 0.208381 6.23957 0.114127C6.50837 0.019873 6.79402 -0.0166393 7.07789 0.00697291C7.37222 0.0376789 7.65625 0.132493 7.91001 0.284747C8.16376 0.437001 8.38108 0.642999 8.54669 0.888254L13.6115 8.37408C13.8015 8.66454 13.8931 9.00829 13.8731 9.35476C13.853 9.70123 13.7223 10.0321 13.5001 10.2987L10.9575 13.3376C11.9702 15.5787 13.4042 17.6043 15.1816 19.304C16.9475 21.0653 19.0348 22.4717 21.3303 23.447L24.4807 20.945C24.7452 20.7359 25.0672 20.6122 25.4038 20.5905C25.7403 20.5688 26.0755 20.6501 26.3648 20.8234L34.0127 25.7667C34.2751 25.9234 34.4987 26.1375 34.6667 26.3929C34.8347 26.6482 34.9427 26.9383 34.9826 27.2414C35.0226 27.5444 34.9934 27.8526 34.8974 28.1428C34.8013 28.433 34.6409 28.6977 34.428 28.917L30.4774 32.8271C30.0287 33.2736 29.496 33.627 28.9102 33.8669C28.3243 34.1068 27.6968 34.2285 27.0637 34.225V34.225ZM6.91581 2.01265L2.86394 5.91257C2.53721 6.21701 2.29535 6.60126 2.16215 7.02752C2.02894 7.45378 2.00898 7.90737 2.10422 8.34369C3.39142 14.2109 6.35029 19.5798 10.6233 23.8016C15.0137 28.0171 20.5054 30.9069 26.4661 32.1383C26.9172 32.2326 27.3848 32.2135 27.8268 32.0827C28.2687 31.9518 28.6713 31.7134 28.9985 31.3887L32.9491 27.4786L25.5645 22.7075L22.1812 25.402C22.0517 25.5046 21.8991 25.5738 21.7366 25.6038C21.5742 25.6339 21.4069 25.6237 21.2493 25.5742C18.44 24.5392 15.8942 22.8962 13.7939 20.7627C11.6214 18.7339 9.93508 16.2408 8.86071 13.4693C8.81525 13.3015 8.81374 13.1249 8.85632 12.9563C8.8989 12.7878 8.98413 12.633 9.10382 12.507L11.8388 9.2351L6.91581 2.01265Z" fill="#252525"/>
</svg>
