<svg width="33" height="35" viewBox="0 0 33 35" fill="none" xmlns="http://www.w3.org/2000/svg">
<path d="M14.2907 0.735224C14.7901 0.263075 15.4513 0 16.1385 0C16.8258 0 17.487 0.263075 17.9864 0.735224L31.0156 13.0516C31.8225 13.8128 32.277 14.8753 32.277 15.9834V30.9654C32.277 32.0354 31.852 33.0616 31.0953 33.8183C30.3387 34.5749 29.3125 35 28.2424 35H22.8629C22.3328 35 21.808 34.8956 21.3183 34.6926C20.8286 34.4897 20.3837 34.1923 20.009 33.8173C19.6344 33.4424 19.3372 32.9973 19.1346 32.5075C18.932 32.0177 18.8279 31.4927 18.8283 30.9627V24.2383C18.8283 23.8816 18.6866 23.5395 18.4344 23.2873C18.1822 23.0351 17.8401 22.8934 17.4834 22.8934H14.7936C14.437 22.8934 14.0949 23.0351 13.8427 23.2873C13.5905 23.5395 13.4488 23.8816 13.4488 24.2383V30.9627C13.4488 32.0327 13.0237 33.059 12.2671 33.8156C11.5104 34.5722 10.4842 34.9973 9.41414 34.9973H4.03463C2.96458 34.9973 1.93836 34.5722 1.18172 33.8156C0.425076 33.059 0 32.0327 0 30.9627V15.9807C0 14.8726 0.457258 13.8101 1.26418 13.0489L14.2907 0.729845V0.735224ZM16.1385 2.68799L3.10936 15.0071C2.97709 15.1325 2.87168 15.2834 2.79955 15.4508C2.72742 15.6182 2.69007 15.7985 2.68975 15.9807V30.9627C2.68975 31.3194 2.83145 31.6614 3.08366 31.9137C3.33587 32.1659 3.67795 32.3076 4.03463 32.3076H9.41414C9.77082 32.3076 10.1129 32.1659 10.3651 31.9137C10.6173 31.6614 10.759 31.3194 10.759 30.9627V24.2383C10.759 23.1682 11.1841 22.142 11.9407 21.3854C12.6974 20.6287 13.7236 20.2037 14.7936 20.2037H17.4834C18.5535 20.2037 19.5797 20.6287 20.3363 21.3854C21.093 22.142 21.518 23.1682 21.518 24.2383V30.9627C21.518 31.3194 21.6597 31.6614 21.9119 31.9137C22.1641 32.1659 22.5062 32.3076 22.8629 32.3076H28.2424C28.5991 32.3076 28.9412 32.1659 29.1934 31.9137C29.4456 31.6614 29.5873 31.3194 29.5873 30.9627V15.9807C29.5873 15.798 29.5502 15.6172 29.478 15.4494C29.4059 15.2815 29.3003 15.1301 29.1677 15.0044L16.1385 2.68799Z" fill="black"/>
</svg>
