<svg width="85" height="26" viewBox="0 0 85 26" fill="none" xmlns="http://www.w3.org/2000/svg">
<path d="M23.46 2.5C23.46 1.99333 23.6533 1.58667 24.04 1.28C24.44 0.959999 24.9667 0.799999 25.62 0.799999C26.26 0.799999 26.7733 0.959999 27.16 1.28C27.5467 1.58667 27.74 1.99333 27.74 2.5C27.74 3.03333 27.5467 3.46 27.16 3.78C26.7733 4.08667 26.26 4.24 25.62 4.24C24.9667 4.24 24.44 4.08667 24.04 3.78C23.6533 3.46 23.46 3.03333 23.46 2.5ZM16.86 15C17.0467 14.76 17.2133 14.4467 17.36 14.06C17.5067 13.66 17.58 13.0733 17.58 12.3V5.86L15.18 15H12.18C12.1133 14.76 12.0333 14.4933 11.94 14.2C11.8733 13.96 11.7933 13.68 11.7 13.36C11.6067 13.0267 11.5067 12.6733 11.4 12.3L9 3.7C8.97333 3.59333 8.94667 3.50667 8.92 3.44V3.7V12.3C8.92 13.0733 8.99333 13.66 9.14 14.06C9.28667 14.4467 9.45333 14.76 9.64 15H6.84C7.02667 14.76 7.19333 14.4467 7.34 14.06C7.48667 13.66 7.56 13.0733 7.56 12.3V3.7C7.56 3.35333 7.52667 3.08 7.46 2.88C7.39333 2.66667 7.30667 2.50667 7.2 2.4C7.09333 2.29333 6.96 2.22 6.8 2.18C6.65333 2.14 6.5 2.12 6.34 2.12C5.7 2.12 5.20667 2.27333 4.86 2.58C4.52667 2.87333 4.36 3.18667 4.36 3.52C4.36 3.8 4.41333 4.03333 4.52 4.22C4.64 4.39333 4.76667 4.56667 4.9 4.74C5.04667 4.9 5.17333 5.07333 5.28 5.26C5.4 5.43333 5.46 5.66 5.46 5.94C5.46 6.27333 5.38667 6.56 5.24 6.8C5.10667 7.02667 4.92667 7.21333 4.7 7.36C4.48667 7.50667 4.23333 7.61333 3.94 7.68C3.66 7.73333 3.37333 7.76 3.08 7.76C2.78667 7.76 2.48667 7.72 2.18 7.64C1.87333 7.54667 1.59333 7.4 1.34 7.2C1.08667 7 0.88 6.73333 0.72 6.4C0.573333 6.06667 0.5 5.66 0.5 5.18C0.5 4.43333 0.66 3.8 0.98 3.28C1.3 2.74667 1.75333 2.31333 2.34 1.98C2.94 1.63333 3.66667 1.38667 4.52 1.24C5.38667 1.08 6.36 0.999999 7.44 0.999999H13.02C12.8333 1.24 12.7133 1.56667 12.66 1.98C12.6067 2.38 12.6867 2.95333 12.9 3.7L14.92 10.96L16.8 3.7C16.9733 3.02 17.08 2.48 17.12 2.08C17.16 1.68 17.1067 1.36 16.96 1.12C16.9333 1.09333 16.9133 1.07333 16.9 1.06C16.9 1.04667 16.8867 1.02667 16.86 0.999999H22.2C22.0133 1.22667 21.8467 1.54 21.7 1.94C21.5533 2.34 21.48 2.92667 21.48 3.7V12.3C21.48 13.0733 21.5533 13.66 21.7 14.06C21.8467 14.4467 22.0133 14.76 22.2 15H16.86ZM57.74 20.92C57.74 19.9867 57.9267 19.22 58.3 18.62C58.6733 18.02 59.1333 17.54 59.68 17.18C60.24 16.8333 60.8333 16.5933 61.46 16.46C62.1 16.3267 62.68 16.26 63.2 16.26C63.8533 16.26 64.3933 16.34 64.82 16.5C65.2467 16.66 65.5867 16.86 65.84 17.1C66.0933 17.3533 66.2667 17.64 66.36 17.96C66.4667 18.28 66.52 18.6 66.52 18.92C66.52 19.16 66.48 19.4133 66.4 19.68C66.3333 19.9467 66.2133 20.1933 66.04 20.42C65.8667 20.6467 65.6333 20.8333 65.34 20.98C65.0467 21.14 64.6733 21.22 64.22 21.22C63.9267 21.2333 63.64 21.2 63.36 21.12C63.0933 21.0533 62.8333 20.9733 62.58 20.88C62.34 20.7867 62.1 20.7 61.86 20.62C61.6333 20.54 61.4067 20.5 61.18 20.5C60.82 20.5 60.54 20.5933 60.34 20.78C60.14 20.9667 60.04 21.2 60.04 21.48C60.04 21.7333 60.1267 21.9933 60.3 22.26C60.4733 22.5267 60.72 22.7667 61.04 22.98C61.3733 23.1933 61.7867 23.3667 62.28 23.5C62.7733 23.6333 63.34 23.7 63.98 23.7C64.4867 23.7 65.02 23.6267 65.58 23.48C66.1533 23.3333 66.6733 23.0867 67.14 22.74C67.62 22.3933 68.0133 21.9267 68.32 21.34C68.64 20.7667 68.8 20.0467 68.8 19.18C68.8 18.5 68.6867 17.9333 68.46 17.48C68.2467 17.0267 68 16.6067 67.72 16.22C67.4533 15.8333 67.1933 15.44 66.94 15.04C66.6867 14.64 66.52 14.16 66.44 13.6C65.7067 13.52 65.0667 13.3533 64.52 13.1C63.9867 12.8467 63.54 12.5333 63.18 12.16C62.8333 11.7733 62.5733 11.3333 62.4 10.84C62.2267 10.3467 62.14 9.81333 62.14 9.24C62.14 8.61333 62.2533 8.03333 62.48 7.5C62.7067 6.95333 63.0467 6.48667 63.5 6.1C63.9533 5.7 64.52 5.38667 65.2 5.16C65.8933 4.93333 66.7067 4.82 67.64 4.82C67.68 4.55333 67.76 4.26 67.88 3.94C68.0133 3.62 68.1867 3.32 68.4 3.04C68.6267 2.76 68.9 2.52667 69.22 2.34C69.5533 2.15333 69.9333 2.06 70.36 2.06C70.8267 2.06 71.1733 2.19333 71.4 2.46C71.64 2.72667 71.76 3.02 71.76 3.34C71.76 3.64667 71.6467 3.93333 71.42 4.2C71.1933 4.46667 70.8533 4.6 70.4 4.6C69.7733 4.6 69.26 4.7 68.86 4.9C69.5667 4.99333 70.1867 5.16667 70.72 5.42C71.2533 5.67333 71.6933 5.99333 72.04 6.38C72.4 6.75333 72.6667 7.18667 72.84 7.68C73.0133 8.16 73.1 8.68 73.1 9.24C73.1 9.88 72.9933 10.4667 72.78 11C72.5667 11.5333 72.2467 11.9933 71.82 12.38C71.3933 12.7667 70.8467 13.0733 70.18 13.3C69.5267 13.5267 68.7533 13.6467 67.86 13.66C67.9933 13.8867 68.2267 14.1 68.56 14.3C68.9067 14.4867 69.2933 14.6867 69.72 14.9C70.1467 15.1 70.5867 15.3267 71.04 15.58C71.4933 15.8467 71.9067 16.1667 72.28 16.54C72.6667 16.9267 72.98 17.38 73.22 17.9C73.4733 18.42 73.6 19.0467 73.6 19.78C73.6 20.78 73.3467 21.6267 72.84 22.32C72.3467 23.0267 71.6733 23.6 70.82 24.04C69.98 24.4933 69.0067 24.82 67.9 25.02C66.7933 25.2333 65.6333 25.34 64.42 25.34C63.26 25.34 62.2533 25.22 61.4 24.98C60.56 24.74 59.8667 24.4133 59.32 24C58.7867 23.6 58.3867 23.1333 58.12 22.6C57.8667 22.0667 57.74 21.5067 57.74 20.92ZM42.96 15C43.16 14.76 43.3267 14.4467 43.46 14.06C43.6067 13.66 43.68 13.0733 43.68 12.3V6.82C43.68 6.64667 43.68 6.50667 43.68 6.4C43.6933 6.28 43.7 6.18667 43.7 6.12H42.48V5H43.7C43.82 4.98667 44.0467 4.91333 44.38 4.78C44.7267 4.63333 45.1 4.46 45.5 4.26C45.9 4.06 46.2933 3.84 46.68 3.6C47.0667 3.36 47.3733 3.14 47.6 2.94V5H48.74V6.12H47.6V12.3C47.6 13.0733 47.6667 13.66 47.8 14.06C47.9467 14.4467 48.12 14.76 48.32 15H42.96ZM29.6 15C29.7867 14.76 29.9533 14.4467 30.1 14.06C30.2467 13.66 30.32 13.0733 30.32 12.3V9.34C30.32 8.98 30.3133 8.64667 30.3 8.34C30.3 8.02 30.28 7.72 30.24 7.44C30.2 7.14667 30.1267 6.86667 30.02 6.6C29.9267 6.33333 29.7867 6.08 29.6 5.84C30.5733 5.86667 31.42 5.80667 32.14 5.66C32.86 5.51333 33.5533 5.29333 34.22 5V5.6C34.4867 5.37333 34.8133 5.18667 35.2 5.04C35.6 4.88 36.0667 4.8 36.6 4.8C37.0267 4.8 37.4867 4.88667 37.98 5.06C38.4867 5.22 38.96 5.50667 39.4 5.92C39.84 6.32 40.2067 6.86667 40.5 7.56C40.7933 8.24 40.94 9.10667 40.94 10.16V16.38C41.3267 16.3 41.72 16.2333 42.12 16.18C42.52 16.1267 42.94 16.1 43.38 16.1C44.82 16.1 45.9267 16.4267 46.7 17.08C47.4867 17.7467 47.88 18.64 47.88 19.76C47.88 20.5467 47.72 21.2133 47.4 21.76C47.0933 22.32 46.6867 22.7733 46.18 23.12C45.6867 23.4667 45.1267 23.7133 44.5 23.86C43.8867 24.02 43.2733 24.1 42.66 24.1C41.3667 24.1 40.28 23.8533 39.4 23.36C38.5333 22.88 37.9133 22.1133 37.54 21.06C36.34 21.62 35.06 22.18 33.7 22.74C32.3533 23.3 30.9733 23.8 29.56 24.24C28.1467 24.68 26.7267 25.04 25.3 25.32C23.8867 25.6 22.5067 25.74 21.16 25.74C20.52 25.74 19.8867 25.6533 19.26 25.48C18.6467 25.32 18.1 25.0667 17.62 24.72C17.14 24.3733 16.7533 23.9333 16.46 23.4C16.1667 22.8667 16.02 22.2333 16.02 21.5C16.02 20.6467 16.22 19.8933 16.62 19.24C17.02 18.5867 17.5267 18.04 18.14 17.6C18.7667 17.16 19.4467 16.8267 20.18 16.6C20.9267 16.3733 21.64 16.26 22.32 16.26C22.8133 16.26 23.2267 16.3333 23.56 16.48C23.9067 16.64 24.1867 16.84 24.4 17.08C24.6133 17.32 24.7667 17.58 24.86 17.86C24.9533 18.1533 25 18.4267 25 18.68C25 18.9733 24.96 19.26 24.88 19.54C24.8133 19.82 24.6933 20.0667 24.52 20.28C24.3467 20.5067 24.1133 20.6867 23.82 20.82C23.5267 20.9533 23.1533 21.0267 22.7 21.04C22.4067 21.04 22.1133 21 21.82 20.92C21.54 20.8533 21.26 20.7733 20.98 20.68C20.7 20.5867 20.4133 20.5 20.12 20.42C19.84 20.34 19.5467 20.3 19.24 20.3C18.7733 20.3 18.4533 20.4067 18.28 20.62C18.1067 20.8467 18.02 21.12 18.02 21.44C18.02 21.8533 18.2333 22.1533 18.66 22.34C19.0867 22.5267 19.66 22.62 20.38 22.62C21.14 22.62 22.0067 22.5267 22.98 22.34C23.9667 22.1533 25.02 21.88 26.14 21.52C27.0867 21.2267 28.0533 20.9067 29.04 20.56C30.04 20.2267 31.0133 19.8867 31.96 19.54C32.92 19.1933 33.8333 18.8533 34.7 18.52C35.58 18.1867 36.3667 17.8733 37.06 17.58V10.76C37.06 9.86667 37.0133 9.14 36.92 8.58C36.84 8.02 36.72 7.58667 36.56 7.28C36.4133 6.97333 36.2467 6.76667 36.06 6.66C35.8733 6.54 35.68 6.48 35.48 6.48C35.1733 6.48 34.9333 6.56667 34.76 6.74C34.5867 6.9 34.46 7.07333 34.38 7.26C34.2867 7.5 34.2333 7.76667 34.22 8.06V12.3C34.22 13.0733 34.2933 13.66 34.44 14.06C34.5867 14.4467 34.7533 14.76 34.94 15H29.6ZM49.56 12.5C49.56 12.0067 49.6933 11.5733 49.96 11.2C50.2267 10.8133 50.5667 10.4667 50.98 10.16C51.4067 9.84 51.88 9.55333 52.4 9.3C52.92 9.04667 53.4333 8.80667 53.94 8.58C54.4467 8.35333 54.9133 8.13333 55.34 7.92C55.78 7.69333 56.1333 7.45333 56.4 7.2C56.3333 6.81333 56.22 6.49333 56.06 6.24C55.9 5.98667 55.66 5.86 55.34 5.86C54.9933 5.86 54.72 5.92 54.52 6.04C54.32 6.14667 54.1467 6.29333 54 6.48C53.8667 6.65333 53.7533 6.84667 53.66 7.06C53.5667 7.26 53.4467 7.46 53.3 7.66C53.1667 7.86 53 8.04 52.8 8.2C52.6 8.36 52.3267 8.47333 51.98 8.54C51.74 8.58 51.4933 8.58667 51.24 8.56C51 8.53333 50.7733 8.46667 50.56 8.36C50.3467 8.24 50.1733 8.07333 50.04 7.86C49.9067 7.63333 49.84 7.35333 49.84 7.02C49.84 6.54 50.0067 6.16 50.34 5.88C50.6733 5.58667 51.1067 5.36667 51.64 5.22C52.1867 5.06 52.7933 4.95333 53.46 4.9C54.1267 4.84667 54.7933 4.82 55.46 4.82C56.06 4.82 56.6533 4.87333 57.24 4.98C57.8267 5.07333 58.3533 5.24 58.82 5.48C59.3 5.72 59.68 6.04667 59.96 6.46C60.2533 6.86 60.4 7.37333 60.4 8V12.3C60.4 13.0733 60.4733 13.66 60.62 14.06C60.7667 14.4467 60.9333 14.76 61.12 15H56.5V14.56C56.1933 14.7333 55.8 14.88 55.32 15C54.84 15.1333 54.2533 15.2 53.56 15.2C53.12 15.2 52.66 15.1667 52.18 15.1C51.7133 15.0467 51.2867 14.9267 50.9 14.74C50.5133 14.54 50.1933 14.2667 49.94 13.92C49.6867 13.56 49.56 13.0867 49.56 12.5ZM84.04 12.54C83.8933 13.0333 83.6533 13.4733 83.32 13.86C83.0133 14.1933 82.5933 14.5 82.06 14.78C81.5267 15.0467 80.8067 15.18 79.9 15.18C79.1133 15.18 78.3667 15.06 77.66 14.82C76.9667 14.58 76.36 14.24 75.84 13.8C75.32 13.3467 74.9067 12.8 74.6 12.16C74.2933 11.52 74.14 10.8 74.14 10C74.14 9.21333 74.2667 8.5 74.52 7.86C74.7867 7.22 75.1667 6.67333 75.66 6.22C76.1667 5.76667 76.78 5.42 77.5 5.18C78.22 4.94 79.0467 4.82 79.98 4.82C81.3 4.82 82.3267 5.06 83.06 5.54C83.8067 6.00667 84.18 6.78 84.18 7.86C84.18 8.55333 84 9.12667 83.64 9.58C83.2933 10.0333 82.84 10.3933 82.28 10.66C81.7333 10.9267 81.1267 11.12 80.46 11.24C79.8067 11.3467 79.1667 11.4133 78.54 11.44C78.7267 12.24 79.0467 12.84 79.5 13.24C79.9667 13.6267 80.48 13.82 81.04 13.82C81.4267 13.82 81.7667 13.74 82.06 13.58C82.3533 13.4067 82.5933 13.22 82.78 13.02C82.9933 12.78 83.18 12.5133 83.34 12.22L84.04 12.54ZM23.24 15C23.4267 14.76 23.5933 14.4467 23.74 14.06C23.8867 13.66 23.96 13.0733 23.96 12.3V9.32C23.96 8.97333 23.9533 8.64667 23.94 8.34C23.94 8.02 23.92 7.71333 23.88 7.42C23.84 7.12667 23.7667 6.85333 23.66 6.6C23.5667 6.33333 23.4267 6.07333 23.24 5.82C24.2133 5.86 25.06 5.80667 25.78 5.66C26.5 5.51333 27.1933 5.29333 27.86 5V12.3C27.86 13.0733 27.9333 13.66 28.08 14.06C28.2267 14.4467 28.3933 14.76 28.58 15H23.24ZM81.22 7C81.22 6.33333 80.9667 6 80.46 6C80.26 6 80.0333 6.08667 79.78 6.26C79.54 6.43333 79.3133 6.69333 79.1 7.04C78.9 7.37333 78.7267 7.79333 78.58 8.3C78.4467 8.79333 78.38 9.36667 78.38 10.02C78.66 9.88667 78.96 9.72 79.28 9.52C79.6133 9.32 79.92 9.09333 80.2 8.84C80.4933 8.57333 80.7333 8.28667 80.92 7.98C81.12 7.67333 81.22 7.34667 81.22 7ZM67.62 12.46C68.0467 12.46 68.3933 12.18 68.66 11.62C68.9267 11.06 69.06 10.2667 69.06 9.24C69.06 8.22667 68.9267 7.44 68.66 6.88C68.3933 6.30667 68.0467 6.02 67.62 6.02C67.1933 6.02 66.84 6.30667 66.56 6.88C66.2933 7.44 66.16 8.22667 66.16 9.24C66.16 10.2667 66.2933 11.06 66.56 11.62C66.84 12.18 67.1933 12.46 67.62 12.46ZM56.5 12.96V8.86V8.36C56.2067 8.73333 55.92 9.09333 55.64 9.44C55.36 9.77333 55.1133 10.1067 54.9 10.44C54.6867 10.7733 54.5133 11.1133 54.38 11.46C54.26 11.7933 54.2 12.14 54.2 12.5C54.2 12.6733 54.22 12.8533 54.26 13.04C54.3 13.2133 54.36 13.3733 54.44 13.52C54.52 13.6533 54.6267 13.7667 54.76 13.86C54.8933 13.94 55.0533 13.98 55.24 13.98C55.5067 13.98 55.72 13.94 55.88 13.86C56.04 13.78 56.16 13.6867 56.24 13.58C56.3333 13.46 56.3933 13.3467 56.42 13.24C56.46 13.12 56.4867 13.0267 56.5 12.96ZM43 22.78C43.16 22.78 43.34 22.74 43.54 22.66C43.74 22.58 43.9267 22.46 44.1 22.3C44.2733 22.14 44.42 21.9333 44.54 21.68C44.66 21.4267 44.72 21.1267 44.72 20.78C44.72 20.1 44.5267 19.62 44.14 19.34C43.7533 19.0733 43.3 18.94 42.78 18.94C42.4333 18.94 42.1333 18.98 41.88 19.06C41.6267 19.1533 41.3867 19.2733 41.16 19.42C41.16 19.9 41.1733 20.3467 41.2 20.76C41.2267 21.1733 41.3 21.5267 41.42 21.82C41.54 22.1267 41.72 22.36 41.96 22.52C42.2133 22.6933 42.56 22.78 43 22.78Z" fill="#FFC6C6"/>
</svg>
