<svg width="124" height="76" viewBox="0 0 124 76" fill="none" xmlns="http://www.w3.org/2000/svg">
<path d="M12.648 18C12.872 17.712 13.072 17.336 13.248 16.872C13.424 16.392 13.512 15.688 13.512 14.76V7.032L10.632 18H7.032C6.952 17.712 6.856 17.392 6.744 17.04C6.664 16.752 6.568 16.416 6.456 16.032C6.344 15.632 6.224 15.208 6.096 14.76L3.216 4.44C3.184 4.312 3.152 4.208 3.12 4.128V4.44V14.76C3.12 15.688 3.208 16.392 3.384 16.872C3.56 17.336 3.76 17.712 3.984 18H0.624C0.848 17.712 1.048 17.336 1.224 16.872C1.4 16.392 1.488 15.688 1.488 14.76V4.44C1.488 3.512 1.4 2.816 1.224 2.352C1.048 1.872 0.848 1.488 0.624 1.2H8.04C7.816 1.488 7.672 1.88 7.608 2.376C7.544 2.856 7.64 3.544 7.896 4.44L10.32 13.152L12.576 4.44C12.784 3.624 12.912 2.976 12.96 2.496C13.008 2.016 12.944 1.632 12.768 1.344C12.736 1.312 12.712 1.288 12.696 1.272C12.696 1.256 12.68 1.232 12.648 1.2H19.056C18.832 1.472 18.632 1.848 18.456 2.328C18.28 2.808 18.192 3.512 18.192 4.44V14.76C18.192 15.688 18.28 16.392 18.456 16.872C18.632 17.336 18.832 17.712 19.056 18H12.648ZM20.3115 15C20.3115 14.408 20.4715 13.888 20.7915 13.44C21.1115 12.976 21.5195 12.56 22.0155 12.192C22.5275 11.808 23.0955 11.464 23.7195 11.16C24.3435 10.856 24.9595 10.568 25.5675 10.296C26.1755 10.024 26.7435 9.76 27.2715 9.504C27.7995 9.232 28.2155 8.944 28.5195 8.64C28.4395 8.176 28.3035 7.792 28.1115 7.488C27.9195 7.184 27.6315 7.032 27.2475 7.032C26.8315 7.032 26.5035 7.104 26.2635 7.248C26.0235 7.376 25.8155 7.552 25.6395 7.776C25.4795 7.984 25.3435 8.216 25.2315 8.472C25.1195 8.712 24.9755 8.952 24.7995 9.192C24.6395 9.432 24.4395 9.648 24.1995 9.84C23.9595 10.032 23.6315 10.168 23.2155 10.248C22.9275 10.296 22.6315 10.304 22.3275 10.272C22.0395 10.24 21.7675 10.16 21.5115 10.032C21.2555 9.888 21.0475 9.688 20.8875 9.432C20.7275 9.16 20.6475 8.824 20.6475 8.424C20.6475 7.848 20.8475 7.392 21.2475 7.056C21.6475 6.704 22.1675 6.44 22.8075 6.264C23.4635 6.072 24.1915 5.944 24.9915 5.88C25.7915 5.816 26.5915 5.784 27.3915 5.784C28.1115 5.784 28.8235 5.848 29.5275 5.976C30.2315 6.088 30.8635 6.288 31.4235 6.576C31.9995 6.864 32.4555 7.256 32.7915 7.752C33.1435 8.232 33.3195 8.848 33.3195 9.6V14.76C33.3195 15.688 33.4075 16.392 33.5835 16.872C33.7595 17.336 33.9595 17.712 34.1835 18H28.6395V17.472C28.2715 17.68 27.7995 17.856 27.2235 18C26.6475 18.16 25.9435 18.24 25.1115 18.24C24.5835 18.24 24.0315 18.2 23.4555 18.12C22.8955 18.056 22.3835 17.912 21.9195 17.688C21.4555 17.448 21.0715 17.12 20.7675 16.704C20.4635 16.272 20.3115 15.704 20.3115 15ZM28.6395 15.552V10.632C28.6395 10.536 28.6395 10.44 28.6395 10.344C28.6395 10.248 28.6315 10.144 28.6155 10.032C28.2635 10.48 27.9195 10.912 27.5835 11.328C27.2635 11.728 26.9755 12.128 26.7195 12.528C26.4635 12.928 26.2555 13.336 26.0955 13.752C25.9515 14.152 25.8795 14.568 25.8795 15C25.8795 15.208 25.9035 15.424 25.9515 15.648C25.9995 15.856 26.0715 16.048 26.1675 16.224C26.2635 16.384 26.3915 16.52 26.5515 16.632C26.7115 16.728 26.9035 16.776 27.1275 16.776C27.4475 16.776 27.7035 16.728 27.8955 16.632C28.0875 16.536 28.2315 16.424 28.3275 16.296C28.4395 16.152 28.5115 16.016 28.5435 15.888C28.5915 15.744 28.6235 15.632 28.6395 15.552ZM35.4053 18C35.6293 17.712 35.8293 17.336 36.0053 16.872C36.1813 16.392 36.2693 15.688 36.2693 14.76V5.184C36.2693 4.768 36.2613 4.376 36.2453 4.008C36.2453 3.624 36.2213 3.256 36.1733 2.904C36.1253 2.552 36.0373 2.224 35.9093 1.92C35.7973 1.6 35.6293 1.288 35.4053 0.983999C36.5573 1.032 37.5653 0.967999 38.4293 0.792C39.2933 0.615999 40.1333 0.351999 40.9492 -1.43051e-06V10.008L43.8053 7.8C43.8853 7.736 44.0213 7.632 44.2133 7.488C44.4053 7.328 44.5973 7.16 44.7893 6.984C44.9813 6.808 45.1493 6.632 45.2933 6.456C45.4373 6.264 45.5173 6.112 45.5333 6H48.8693C48.0213 6.496 47.1253 7.112 46.1813 7.848C45.2533 8.584 44.3253 9.328 43.3973 10.08C44.1333 10.944 44.8933 11.784 45.6773 12.6C46.4613 13.416 47.1813 14.176 47.8373 14.88C48.5093 15.568 49.0613 16.184 49.4933 16.728C49.9253 17.256 50.1573 17.68 50.1893 18H44.4293C44.4293 17.808 44.3653 17.584 44.2373 17.328C44.1093 17.072 43.9333 16.792 43.7093 16.488C43.4853 16.184 43.2213 15.864 42.9173 15.528C42.6133 15.176 42.2933 14.832 41.9573 14.496L40.9492 13.488V14.76C40.9492 15.688 41.0373 16.392 41.2133 16.872C41.3893 17.336 41.5893 17.712 41.8133 18H35.4053ZM61.5124 15.048C61.3364 15.64 61.0484 16.168 60.6484 16.632C60.2804 17.032 59.7764 17.4 59.1364 17.736C58.4964 18.056 57.6324 18.216 56.5444 18.216C55.5844 18.216 54.6804 18.072 53.8324 17.784C53.0004 17.496 52.2724 17.088 51.6484 16.56C51.0244 16.016 50.5284 15.36 50.1604 14.592C49.7924 13.824 49.6084 12.96 49.6084 12C49.6084 11.056 49.7604 10.2 50.0644 9.432C50.3844 8.664 50.8404 8.008 51.4324 7.464C52.0404 6.92 52.7764 6.504 53.6404 6.216C54.5204 5.928 55.5204 5.784 56.6404 5.784C58.2084 5.784 59.4324 6.072 60.3124 6.648C61.2084 7.208 61.6564 8.136 61.6564 9.432C61.6564 10.264 61.4404 10.952 61.0084 11.496C60.5924 12.04 60.0484 12.472 59.3764 12.792C58.7204 13.112 57.9924 13.344 57.1924 13.488C56.4084 13.616 55.6404 13.696 54.8884 13.728C55.1124 14.688 55.4964 15.408 56.0404 15.888C56.6004 16.352 57.2164 16.584 57.8884 16.584C58.3524 16.584 58.7604 16.488 59.1124 16.296C59.4644 16.088 59.7524 15.864 59.9764 15.624C60.2324 15.336 60.4564 15.016 60.6484 14.664L61.5124 15.048ZM58.1044 8.4C58.1044 7.6 57.8084 7.2 57.2164 7.2C56.9604 7.2 56.6884 7.304 56.4004 7.512C56.1124 7.72 55.8404 8.032 55.5844 8.448C55.3444 8.848 55.1364 9.352 54.9604 9.96C54.8004 10.552 54.7204 11.24 54.7204 12.024C55.0404 11.864 55.3924 11.664 55.7764 11.424C56.1764 11.184 56.5444 10.912 56.8804 10.608C57.2324 10.288 57.5204 9.944 57.7444 9.576C57.9844 9.208 58.1044 8.816 58.1044 8.4ZM77.5309 16.416C77.2589 17.616 76.9869 18.688 76.7149 19.632C76.4429 20.576 76.1149 21.368 75.7309 22.008C75.3469 22.664 74.8749 23.16 74.3149 23.496C73.7709 23.832 73.0829 24 72.2509 24C71.7389 24 71.2269 23.928 70.7149 23.784C70.2189 23.64 69.7709 23.336 69.3709 22.872C69.0829 22.536 68.9149 22.16 68.8669 21.744C68.8349 21.344 68.8829 20.968 69.0109 20.616C69.1549 20.28 69.3789 20 69.6829 19.776C69.9869 19.552 70.3389 19.448 70.7389 19.464C71.1389 19.48 71.4509 19.544 71.6749 19.656C71.8989 19.784 72.0909 19.912 72.2509 20.04C72.4269 20.184 72.6029 20.304 72.7789 20.4C72.9549 20.512 73.1949 20.552 73.4989 20.52C73.7869 20.504 74.0749 20.256 74.3629 19.776C74.6669 19.312 74.9549 18.72 75.2269 18H72.3469L70.4029 11.184C70.2589 10.688 70.1149 10.248 69.9709 9.864C69.8269 9.464 69.6589 9.104 69.4669 8.784C69.2909 8.464 69.0909 8.16 68.8669 7.872C68.6589 7.584 68.4189 7.288 68.1469 6.984C69.2509 7.016 70.2429 6.944 71.1229 6.768C72.0029 6.576 72.7709 6.32 73.4269 6L75.8269 14.76C75.8589 14.888 75.8909 15.016 75.9229 15.144C75.9709 15.272 76.0189 15.392 76.0669 15.504C76.1949 15.056 76.3149 14.616 76.4269 14.184C76.5549 13.736 76.6669 13.328 76.7629 12.96C76.8589 12.576 76.9389 12.232 77.0029 11.928C77.0829 11.624 77.1469 11.376 77.1949 11.184C77.3869 10.4 77.5469 9.728 77.6749 9.168C77.8029 8.608 77.8989 8.128 77.9629 7.728C78.0429 7.328 78.0909 6.992 78.1069 6.72C78.1229 6.448 78.1069 6.208 78.0589 6C78.4269 6.288 78.8189 6.488 79.2349 6.6C79.6509 6.696 80.0909 6.824 80.5549 6.984C80.3789 7.144 80.1949 7.44 80.0029 7.872C79.8109 8.304 79.6109 8.808 79.4029 9.384C79.2109 9.96 79.0189 10.592 78.8269 11.28C78.6349 11.952 78.4589 12.608 78.2989 13.248C78.1389 13.888 77.9869 14.488 77.8429 15.048C77.7149 15.608 77.6109 16.064 77.5309 16.416ZM88.0449 18.216C86.8609 18.216 85.8289 18.064 84.9489 17.76C84.0849 17.456 83.3649 17.032 82.7889 16.488C82.2129 15.928 81.7809 15.272 81.4929 14.52C81.2209 13.752 81.0849 12.912 81.0849 12C81.0849 11.104 81.2289 10.28 81.5169 9.528C81.8049 8.776 82.2369 8.12 82.8129 7.56C83.3889 7 84.1089 6.568 84.9729 6.264C85.8529 5.944 86.8769 5.784 88.0449 5.784C89.2129 5.784 90.2289 5.944 91.0929 6.264C91.9729 6.568 92.7009 7 93.2769 7.56C93.8689 8.12 94.3089 8.776 94.5969 9.528C94.8849 10.28 95.0289 11.104 95.0289 12C95.0289 12.912 94.8849 13.752 94.5969 14.52C94.3249 15.272 93.9009 15.928 93.3249 16.488C92.7489 17.032 92.0209 17.456 91.1409 17.76C90.2769 18.064 89.2449 18.216 88.0449 18.216ZM88.0449 16.8C88.3169 16.8 88.5649 16.688 88.7889 16.464C89.0289 16.224 89.2289 15.896 89.3889 15.48C89.5649 15.048 89.6929 14.544 89.7729 13.968C89.8689 13.376 89.9169 12.72 89.9169 12C89.9169 11.28 89.8689 10.632 89.7729 10.056C89.6929 9.464 89.5649 8.96 89.3889 8.544C89.2289 8.112 89.0289 7.784 88.7889 7.56C88.5649 7.32 88.3169 7.2 88.0449 7.2C87.7729 7.2 87.5249 7.32 87.3009 7.56C87.0769 7.784 86.8769 8.112 86.7009 8.544C86.5409 8.96 86.4129 9.464 86.3169 10.056C86.2369 10.632 86.1969 11.28 86.1969 12C86.1969 12.72 86.2369 13.376 86.3169 13.968C86.4129 14.544 86.5409 15.048 86.7009 15.48C86.8769 15.896 87.0769 16.224 87.3009 16.464C87.5249 16.688 87.7729 16.8 88.0449 16.8ZM97.113 11.184C97.129 10.336 97.097 9.576 97.017 8.904C96.953 8.216 96.697 7.576 96.249 6.984C97.401 7.032 98.417 6.968 99.297 6.792C100.193 6.616 101.049 6.352 101.865 6V11.088C101.865 12.224 101.913 13.152 102.009 13.872C102.121 14.592 102.265 15.16 102.441 15.576C102.617 15.992 102.817 16.28 103.041 16.44C103.265 16.6 103.497 16.68 103.737 16.68C104.121 16.68 104.409 16.584 104.601 16.392C104.809 16.184 104.961 15.968 105.057 15.744C105.169 15.472 105.233 15.16 105.249 14.808V11.184C105.249 10.336 105.209 9.576 105.129 8.904C105.065 8.232 104.817 7.592 104.385 6.984C105.537 7.032 106.545 6.968 107.409 6.792C108.273 6.616 109.113 6.352 109.929 6V14.76C109.929 15.688 110.017 16.392 110.193 16.872C110.369 17.336 110.569 17.712 110.793 18H105.249V17.28C104.929 17.552 104.529 17.784 104.049 17.976C103.585 18.152 103.025 18.24 102.369 18.24C101.873 18.24 101.313 18.144 100.689 17.952C100.081 17.744 99.505 17.4 98.961 16.92C98.433 16.424 97.985 15.768 97.617 14.952C97.265 14.12 97.097 13.072 97.113 11.808V11.184ZM112.022 18C112.246 17.712 112.446 17.336 112.622 16.872C112.798 16.392 112.886 15.688 112.886 14.76V11.208C112.886 10.776 112.878 10.376 112.862 10.008C112.862 9.624 112.838 9.264 112.79 8.928C112.742 8.576 112.654 8.24 112.526 7.92C112.414 7.6 112.246 7.296 112.022 7.008C113.174 7.04 114.182 6.968 115.046 6.792C115.91 6.616 116.75 6.352 117.566 6V6.72C117.838 6.448 118.166 6.224 118.55 6.048C118.934 5.856 119.39 5.76 119.918 5.76C120.302 5.76 120.694 5.808 121.094 5.904C121.51 5.984 121.886 6.128 122.222 6.336C122.558 6.544 122.838 6.808 123.062 7.128C123.302 7.448 123.446 7.84 123.494 8.304C123.542 8.864 123.438 9.312 123.182 9.648C122.942 9.984 122.566 10.192 122.054 10.272C121.59 10.336 121.134 10.256 120.686 10.032C120.254 9.792 119.966 9.36 119.822 8.736C119.758 8.432 119.67 8.184 119.558 7.992C119.446 7.784 119.23 7.68 118.91 7.68C118.59 7.68 118.342 7.808 118.166 8.064C117.99 8.32 117.854 8.6 117.758 8.904C117.662 9.272 117.598 9.688 117.566 10.152V14.76C117.566 15.688 117.654 16.392 117.83 16.872C118.006 17.336 118.206 17.712 118.43 18H112.022ZM0.624 44C0.848 43.712 1.048 43.336 1.224 42.872C1.4 42.392 1.488 41.688 1.488 40.76V31.184C1.488 30.768 1.48 30.376 1.464 30.008C1.464 29.624 1.44 29.256 1.392 28.904C1.344 28.552 1.256 28.224 1.128 27.92C1.016 27.6 0.848 27.288 0.624 26.984C1.776 27.032 2.784 26.968 3.648 26.792C4.512 26.616 5.352 26.352 6.168 26V32.72C6.488 32.448 6.88 32.224 7.344 32.048C7.824 31.856 8.384 31.76 9.024 31.76C9.536 31.76 10.088 31.864 10.68 32.072C11.288 32.264 11.856 32.608 12.384 33.104C12.912 33.584 13.352 34.24 13.704 35.072C14.056 35.888 14.232 36.928 14.232 38.192V40.76C14.232 41.688 14.32 42.392 14.496 42.872C14.672 43.336 14.872 43.712 15.096 44H8.688C8.912 43.712 9.112 43.336 9.288 42.872C9.464 42.392 9.552 41.688 9.552 40.76V38.912C9.552 37.776 9.496 36.872 9.384 36.2C9.288 35.528 9.152 35.016 8.976 34.664C8.8 34.296 8.6 34.056 8.376 33.944C8.152 33.832 7.92 33.776 7.68 33.776C7.312 33.776 7.024 33.88 6.816 34.088C6.608 34.28 6.456 34.488 6.36 34.712C6.248 35 6.184 35.32 6.168 35.672V40.76C6.168 41.688 6.256 42.392 6.432 42.872C6.608 43.336 6.808 43.712 7.032 44H0.624ZM23.2871 44.216C22.1031 44.216 21.0711 44.064 20.1911 43.76C19.3271 43.456 18.6071 43.032 18.0311 42.488C17.4551 41.928 17.0231 41.272 16.7351 40.52C16.4631 39.752 16.3271 38.912 16.3271 38C16.3271 37.104 16.4711 36.28 16.7591 35.528C17.0471 34.776 17.4791 34.12 18.0551 33.56C18.6311 33 19.3511 32.568 20.2151 32.264C21.0951 31.944 22.1191 31.784 23.2871 31.784C24.4551 31.784 25.4711 31.944 26.3351 32.264C27.2151 32.568 27.9431 33 28.5191 33.56C29.1111 34.12 29.5511 34.776 29.8391 35.528C30.1271 36.28 30.2711 37.104 30.2711 38C30.2711 38.912 30.1271 39.752 29.8391 40.52C29.5671 41.272 29.1431 41.928 28.5671 42.488C27.9911 43.032 27.2631 43.456 26.3831 43.76C25.5191 44.064 24.4871 44.216 23.2871 44.216ZM23.2871 42.8C23.5591 42.8 23.8071 42.688 24.0311 42.464C24.2711 42.224 24.4711 41.896 24.6311 41.48C24.8071 41.048 24.9351 40.544 25.0151 39.968C25.1111 39.376 25.1591 38.72 25.1591 38C25.1591 37.28 25.1111 36.632 25.0151 36.056C24.9351 35.464 24.8071 34.96 24.6311 34.544C24.4711 34.112 24.2711 33.784 24.0311 33.56C23.8071 33.32 23.5591 33.2 23.2871 33.2C23.0151 33.2 22.7671 33.32 22.5431 33.56C22.3191 33.784 22.1191 34.112 21.9431 34.544C21.7831 34.96 21.6551 35.464 21.5591 36.056C21.4791 36.632 21.4391 37.28 21.4391 38C21.4391 38.72 21.4791 39.376 21.5591 39.968C21.6551 40.544 21.7831 41.048 21.9431 41.48C22.1191 41.896 22.3191 42.224 22.5431 42.464C22.7671 42.688 23.0151 42.8 23.2871 42.8ZM31.4912 44C31.7152 43.712 31.9152 43.336 32.0912 42.872C32.2672 42.392 32.3552 41.688 32.3552 40.76V37.208C32.3552 36.776 32.3472 36.376 32.3312 36.008C32.3312 35.624 32.3072 35.264 32.2592 34.928C32.2112 34.576 32.1232 34.24 31.9952 33.92C31.8832 33.6 31.7152 33.296 31.4912 33.008C32.6432 33.04 33.6512 32.968 34.5152 32.792C35.3792 32.616 36.2192 32.352 37.0352 32V32.72C37.3552 32.448 37.7472 32.224 38.2112 32.048C38.6912 31.856 39.2512 31.76 39.8912 31.76C40.1952 31.76 40.5472 31.792 40.9472 31.856C41.3472 31.92 41.7472 32.032 42.1472 32.192C42.5632 32.352 42.9472 32.56 43.2992 32.816C43.6672 33.056 43.9552 33.36 44.1632 33.728C44.2912 33.536 44.4592 33.328 44.6672 33.104C44.8912 32.864 45.1552 32.648 45.4592 32.456C45.7792 32.248 46.1392 32.08 46.5392 31.952C46.9552 31.824 47.4272 31.76 47.9552 31.76C48.4672 31.76 49.0192 31.864 49.6112 32.072C50.2192 32.264 50.7872 32.608 51.3152 33.104C51.8432 33.584 52.2832 34.24 52.6352 35.072C52.9872 35.888 53.1632 36.928 53.1632 38.192V40.76C53.1632 41.688 53.2512 42.392 53.4272 42.872C53.6032 43.336 53.8032 43.712 54.0272 44H47.6192C47.8432 43.712 48.0432 43.336 48.2192 42.872C48.3952 42.392 48.4832 41.688 48.4832 40.76V38.912C48.4832 37.776 48.4272 36.872 48.3152 36.2C48.2192 35.528 48.0832 35.016 47.9072 34.664C47.7312 34.296 47.5312 34.056 47.3072 33.944C47.0832 33.832 46.8512 33.776 46.6112 33.776C46.2752 33.776 45.9952 33.856 45.7712 34.016C45.5472 34.16 45.3632 34.336 45.2192 34.544C45.0912 34.752 44.9952 34.968 44.9312 35.192C44.8832 35.4 44.8592 35.568 44.8592 35.696C44.8912 36.176 44.9152 36.616 44.9312 37.016C44.9632 37.4 44.9872 37.784 45.0032 38.168C45.0352 38.552 45.0592 38.952 45.0752 39.368C45.0912 39.784 45.0992 40.248 45.0992 40.76C45.0992 41.688 45.1872 42.392 45.3632 42.872C45.5392 43.336 45.7392 43.712 45.9632 44H39.5552C39.7792 43.712 39.9792 43.336 40.1552 42.872C40.3312 42.392 40.4192 41.688 40.4192 40.76V38.912C40.4192 37.776 40.3632 36.872 40.2512 36.2C40.1552 35.528 40.0192 35.016 39.8432 34.664C39.6672 34.296 39.4672 34.056 39.2432 33.944C39.0192 33.832 38.7872 33.776 38.5472 33.776C38.1792 33.776 37.8912 33.848 37.6832 33.992C37.4752 34.136 37.3232 34.296 37.2272 34.472C37.1152 34.68 37.0512 34.92 37.0352 35.192V40.76C37.0352 41.688 37.1232 42.392 37.2992 42.872C37.4752 43.336 37.6752 43.712 37.8992 44H31.4912ZM67.1608 41.048C66.9848 41.64 66.6968 42.168 66.2968 42.632C65.9288 43.032 65.4248 43.4 64.7848 43.736C64.1448 44.056 63.2808 44.216 62.1928 44.216C61.2328 44.216 60.3288 44.072 59.4808 43.784C58.6488 43.496 57.9208 43.088 57.2968 42.56C56.6728 42.016 56.1768 41.36 55.8088 40.592C55.4408 39.824 55.2568 38.96 55.2568 38C55.2568 37.056 55.4088 36.2 55.7128 35.432C56.0328 34.664 56.4888 34.008 57.0808 33.464C57.6888 32.92 58.4248 32.504 59.2888 32.216C60.1688 31.928 61.1688 31.784 62.2888 31.784C63.8568 31.784 65.0808 32.072 65.9608 32.648C66.8568 33.208 67.3048 34.136 67.3048 35.432C67.3048 36.264 67.0888 36.952 66.6568 37.496C66.2408 38.04 65.6968 38.472 65.0248 38.792C64.3688 39.112 63.6408 39.344 62.8408 39.488C62.0568 39.616 61.2888 39.696 60.5368 39.728C60.7608 40.688 61.1448 41.408 61.6888 41.888C62.2488 42.352 62.8648 42.584 63.5368 42.584C64.0008 42.584 64.4088 42.488 64.7608 42.296C65.1128 42.088 65.4008 41.864 65.6248 41.624C65.8808 41.336 66.1048 41.016 66.2968 40.664L67.1608 41.048ZM63.7528 34.4C63.7528 33.6 63.4568 33.2 62.8648 33.2C62.6088 33.2 62.3368 33.304 62.0488 33.512C61.7608 33.72 61.4888 34.032 61.2328 34.448C60.9928 34.848 60.7848 35.352 60.6088 35.96C60.4488 36.552 60.3688 37.24 60.3688 38.024C60.6888 37.864 61.0408 37.664 61.4248 37.424C61.8248 37.184 62.1928 36.912 62.5288 36.608C62.8808 36.288 63.1688 35.944 63.3928 35.576C63.6328 35.208 63.7528 34.816 63.7528 34.4Z" fill="white"/>
<path d="M1.488 63.184C1.504 62.336 1.472 61.576 1.392 60.904C1.328 60.216 1.072 59.576 0.624 58.984C1.776 59.032 2.792 58.968 3.672 58.792C4.568 58.616 5.424 58.352 6.24 58V63.088C6.24 64.224 6.288 65.152 6.384 65.872C6.496 66.592 6.64 67.16 6.816 67.576C6.992 67.992 7.192 68.28 7.416 68.44C7.64 68.6 7.872 68.68 8.112 68.68C8.496 68.68 8.784 68.584 8.976 68.392C9.184 68.184 9.336 67.968 9.432 67.744C9.544 67.472 9.608 67.16 9.624 66.808V63.184C9.624 62.336 9.584 61.576 9.504 60.904C9.44 60.232 9.192 59.592 8.76 58.984C9.912 59.032 10.92 58.968 11.784 58.792C12.648 58.616 13.488 58.352 14.304 58V66.76C14.304 67.688 14.392 68.392 14.568 68.872C14.744 69.336 14.944 69.712 15.168 70H9.624V69.28C9.304 69.552 8.904 69.784 8.424 69.976C7.96 70.152 7.4 70.24 6.744 70.24C6.248 70.24 5.688 70.144 5.064 69.952C4.456 69.744 3.88 69.4 3.336 68.92C2.808 68.424 2.36 67.768 1.992 66.952C1.64 66.12 1.472 65.072 1.488 63.808V63.184ZM16.3974 70C16.6214 69.712 16.8214 69.336 16.9974 68.872C17.1734 68.392 17.2614 67.688 17.2614 66.76V63.208C17.2614 62.776 17.2534 62.376 17.2374 62.008C17.2374 61.624 17.2134 61.264 17.1654 60.928C17.1174 60.576 17.0294 60.24 16.9014 59.92C16.7894 59.6 16.6214 59.296 16.3974 59.008C17.5494 59.04 18.5574 58.968 19.4214 58.792C20.2854 58.616 21.1254 58.352 21.9414 58V58.72C22.2614 58.448 22.6534 58.224 23.1174 58.048C23.5974 57.856 24.1574 57.76 24.7974 57.76C25.3094 57.76 25.8614 57.864 26.4534 58.072C27.0614 58.264 27.6294 58.608 28.1574 59.104C28.6854 59.584 29.1254 60.24 29.4774 61.072C29.8294 61.888 30.0054 62.928 30.0054 64.192V66.76C30.0054 67.688 30.0934 68.392 30.2694 68.872C30.4454 69.336 30.6454 69.712 30.8694 70H24.4614C24.6854 69.712 24.8854 69.336 25.0614 68.872C25.2374 68.392 25.3254 67.688 25.3254 66.76V64.912C25.3254 63.84 25.2694 62.968 25.1574 62.296C25.0614 61.624 24.9254 61.104 24.7494 60.736C24.5734 60.368 24.3734 60.12 24.1494 59.992C23.9254 59.848 23.6934 59.776 23.4534 59.776C23.0854 59.776 22.7974 59.88 22.5894 60.088C22.3814 60.28 22.2294 60.488 22.1334 60.712C22.0214 61 21.9574 61.32 21.9414 61.672V66.76C21.9414 67.688 22.0294 68.392 22.2054 68.872C22.3814 69.336 22.5814 69.712 22.8054 70H16.3974ZM32.3646 55C32.3646 54.392 32.5966 53.904 33.0606 53.536C33.5246 53.152 34.1486 52.96 34.9326 52.96C35.7006 52.96 36.3166 53.152 36.7806 53.536C37.2446 53.904 37.4766 54.392 37.4766 55C37.4766 55.64 37.2446 56.152 36.7806 56.536C36.3166 56.904 35.7006 57.088 34.9326 57.088C34.1486 57.088 33.5246 56.904 33.0606 56.536C32.5966 56.152 32.3646 55.64 32.3646 55ZM32.1006 70C32.3246 69.712 32.5246 69.336 32.7006 68.872C32.8766 68.392 32.9646 67.688 32.9646 66.76V63.184C32.9646 62.336 32.9246 61.576 32.8446 60.904C32.7806 60.216 32.5246 59.576 32.0766 58.984C33.2446 59.032 34.2606 58.968 35.1246 58.792C35.9886 58.616 36.8286 58.352 37.6446 58V66.76C37.6446 67.688 37.7246 68.392 37.8846 68.872C38.0606 69.336 38.2686 69.712 38.5086 70H32.1006ZM39.7412 64C39.7412 62.736 39.9412 61.704 40.3412 60.904C40.7412 60.088 41.2532 59.448 41.8772 58.984C42.5012 58.52 43.1972 58.2 43.9652 58.024C44.7332 57.848 45.4852 57.76 46.2212 57.76C46.8932 57.76 47.4692 57.856 47.9492 58.048C48.4292 58.24 48.8292 58.472 49.1492 58.744L53.7812 58V72.76C53.7812 73.688 53.8612 74.384 54.0212 74.848C54.1972 75.328 54.4052 75.712 54.6452 76H48.2372C48.4612 75.712 48.6612 75.328 48.8372 74.848C49.0132 74.384 49.1012 73.688 49.1012 72.76V69.328C48.7652 69.568 48.3652 69.784 47.9012 69.976C47.4372 70.152 46.8772 70.24 46.2212 70.24C45.4852 70.24 44.7332 70.144 43.9652 69.952C43.1972 69.76 42.5012 69.432 41.8772 68.968C41.2532 68.488 40.7412 67.848 40.3412 67.048C39.9412 66.232 39.7412 65.216 39.7412 64ZM47.5892 68.248C47.9732 68.248 48.2612 68.152 48.4532 67.96C48.6612 67.768 48.8132 67.56 48.9092 67.336C49.0212 67.064 49.0852 66.76 49.1012 66.424V61.576C49.0852 61.24 49.0212 60.936 48.9092 60.664C48.8132 60.44 48.6612 60.232 48.4532 60.04C48.2612 59.848 47.9732 59.752 47.5892 59.752C47.3652 59.752 47.1332 59.816 46.8932 59.944C46.6692 60.056 46.4612 60.272 46.2692 60.592C46.0932 60.896 45.9412 61.328 45.8132 61.888C45.7012 62.432 45.6452 63.136 45.6452 64C45.6452 64.864 45.7012 65.576 45.8132 66.136C45.9412 66.68 46.0932 67.112 46.2692 67.432C46.4612 67.736 46.6692 67.952 46.8932 68.08C47.1332 68.192 47.3652 68.248 47.5892 68.248ZM56.613 63.184C56.629 62.336 56.597 61.576 56.517 60.904C56.453 60.216 56.197 59.576 55.749 58.984C56.901 59.032 57.917 58.968 58.797 58.792C59.693 58.616 60.549 58.352 61.365 58V63.088C61.365 64.224 61.413 65.152 61.509 65.872C61.621 66.592 61.765 67.16 61.941 67.576C62.117 67.992 62.317 68.28 62.541 68.44C62.765 68.6 62.997 68.68 63.237 68.68C63.621 68.68 63.909 68.584 64.101 68.392C64.309 68.184 64.461 67.968 64.557 67.744C64.669 67.472 64.733 67.16 64.749 66.808V63.184C64.749 62.336 64.709 61.576 64.629 60.904C64.565 60.232 64.317 59.592 63.885 58.984C65.037 59.032 66.045 58.968 66.909 58.792C67.773 58.616 68.613 58.352 69.429 58V66.76C69.429 67.688 69.517 68.392 69.693 68.872C69.869 69.336 70.069 69.712 70.293 70H64.749V69.28C64.429 69.552 64.029 69.784 63.549 69.976C63.085 70.152 62.525 70.24 61.869 70.24C61.373 70.24 60.813 70.144 60.189 69.952C59.581 69.744 59.005 69.4 58.461 68.92C57.933 68.424 57.485 67.768 57.117 66.952C56.765 66.12 56.597 65.072 56.613 63.808V63.184ZM83.4264 67.048C83.2504 67.64 82.9624 68.168 82.5624 68.632C82.1944 69.032 81.6904 69.4 81.0504 69.736C80.4104 70.056 79.5464 70.216 78.4584 70.216C77.4984 70.216 76.5944 70.072 75.7464 69.784C74.9144 69.496 74.1864 69.088 73.5624 68.56C72.9384 68.016 72.4424 67.36 72.0744 66.592C71.7064 65.824 71.5224 64.96 71.5224 64C71.5224 63.056 71.6744 62.2 71.9784 61.432C72.2984 60.664 72.7544 60.008 73.3464 59.464C73.9544 58.92 74.6904 58.504 75.5544 58.216C76.4344 57.928 77.4344 57.784 78.5544 57.784C80.1224 57.784 81.3464 58.072 82.2264 58.648C83.1224 59.208 83.5704 60.136 83.5704 61.432C83.5704 62.264 83.3544 62.952 82.9224 63.496C82.5064 64.04 81.9624 64.472 81.2904 64.792C80.6344 65.112 79.9064 65.344 79.1064 65.488C78.3224 65.616 77.5544 65.696 76.8024 65.728C77.0264 66.688 77.4104 67.408 77.9544 67.888C78.5144 68.352 79.1304 68.584 79.8024 68.584C80.2664 68.584 80.6744 68.488 81.0264 68.296C81.3784 68.088 81.6664 67.864 81.8904 67.624C82.1464 67.336 82.3704 67.016 82.5624 66.664L83.4264 67.048ZM80.0184 60.4C80.0184 59.6 79.7224 59.2 79.1304 59.2C78.8744 59.2 78.6024 59.304 78.3144 59.512C78.0264 59.72 77.7544 60.032 77.4984 60.448C77.2584 60.848 77.0504 61.352 76.8744 61.96C76.7144 62.552 76.6344 63.24 76.6344 64.024C76.9544 63.864 77.3064 63.664 77.6904 63.424C78.0904 63.184 78.4584 62.912 78.7944 62.608C79.1464 62.288 79.4344 61.944 79.6584 61.576C79.8984 61.208 80.0184 60.816 80.0184 60.4ZM86.6355 65.704L85.6755 56.44C85.5795 55.512 85.4675 54.816 85.3395 54.352C85.2115 53.872 85.0355 53.488 84.8115 53.2H91.2195C90.9955 53.488 90.8195 53.872 90.6915 54.352C90.5635 54.816 90.4515 55.512 90.3555 56.44L89.3955 65.704H86.6355ZM86.0595 68.488C86.0595 67.976 86.2355 67.568 86.5875 67.264C86.9555 66.944 87.4355 66.784 88.0275 66.784C88.6035 66.784 89.0675 66.944 89.4195 67.264C89.7875 67.568 89.9715 67.976 89.9715 68.488C89.9715 69.016 89.7875 69.44 89.4195 69.76C89.0675 70.08 88.6035 70.24 88.0275 70.24C87.4355 70.24 86.9555 70.08 86.5875 69.76C86.2355 69.44 86.0595 69.016 86.0595 68.488Z" fill="#FFC6C6"/>
</svg>
