<svg width="30" height="35" viewBox="0 0 30 35" fill="none" xmlns="http://www.w3.org/2000/svg">
<path d="M8.44201 32.5H20.942C21.7753 32.5 22.192 32.9167 22.192 33.75C22.192 34.5833 21.7753 35 20.942 35H8.44201C7.60868 35 7.19201 34.5833 7.19201 33.75C7.19201 32.9167 7.60868 32.5 8.44201 32.5ZM6.69701 2.5L2.80951 20H26.5745L22.687 2.5H6.69701ZM5.69701 0H23.6895C23.974 0.000111927 24.25 0.097289 24.4718 0.275474C24.6937 0.45366 24.8481 0.70219 24.9095 0.98L29.3545 20.98C29.3949 21.1626 29.3938 21.352 29.3513 21.5341C29.3088 21.7163 29.2259 21.8866 29.1089 22.0324C28.9918 22.1783 28.8435 22.296 28.6748 22.377C28.5062 22.4579 28.3215 22.4999 28.1345 22.5H1.24951C1.06247 22.4999 0.877826 22.4579 0.709196 22.377C0.540565 22.296 0.392244 22.1783 0.275167 22.0324C0.158089 21.8866 0.075238 21.7163 0.0327217 21.5341C-0.00979466 21.352 -0.0108926 21.1626 0.0295084 20.98L4.47451 0.98C4.53597 0.70219 4.69036 0.45366 4.91218 0.275474C5.13401 0.097289 5.40998 0.000111927 5.69451 0H5.69701Z" fill="#252525"/>
<path d="M20.942 19.9999C21.7753 19.9999 22.192 20.4166 22.192 21.2499V26.2499C22.192 27.0833 21.7753 27.4999 20.942 27.4999C20.1087 27.4999 19.692 27.0833 19.692 26.2499V21.2499C19.692 20.4166 20.1087 19.9999 20.942 19.9999ZM13.442 19.9974H15.942V34.9999H13.442V19.9974Z" fill="#252525"/>
</svg>
